<svg xmlns="http://www.w3.org/2000/svg" viewBox="0 0 512 512" width="512" height="512">
  <defs>
    <linearGradient id="g" x1="0" y1="0" x2="0" y2="1">
      <stop offset="0" stop-color="#3395FF"/>
      <stop offset="1" stop-color="#007AFF"/>
    </linearGradient>
  </defs>
  <rect width="512" height="512" rx="114" fill="url(#g)"/>
  <g fill="none" stroke="#FFFFFF" stroke-width="26" stroke-linecap="round" stroke-linejoin="round">
    <!-- prancheta -->
    <path d="M150 132h-16a26 26 0 00-26 26v222a26 26 0 0026 26h244a26 26 0 0026-26V158a26 26 0 00-26-26h-16"/>
    <rect x="186" y="104" width="140" height="56" rx="18"/>
    <!-- linhas + tique -->
    <path d="M176 232h64M176 292h64M176 352h64"/>
    <path d="M282 232h56M282 292h56"/>
    <path d="M282 352h56"/>
  </g>
  <path d="M300 344l16 16 34-38" fill="none" stroke="#FFFFFF" stroke-width="26" stroke-linecap="round" stroke-linejoin="round" opacity="0"/>
</svg>
